<svg width="219" height="36" viewBox="0 0 219 36" fill="none" xmlns="http://www.w3.org/2000/svg">
<path d="M26.1875 31.75C26.3125 31.7292 26.4375 31.7292 26.5625 31.75C26.7083 31.7917 26.8542 31.8333 27 31.875C27.1458 31.9167 27.2917 31.9583 27.4375 32C27.6042 32.0417 27.7604 32.0521 27.9062 32.0312C27.9896 32.0104 28.125 31.9479 28.3125 31.8438C28.5 31.7396 28.6875 31.6042 28.875 31.4375C29.0833 31.2917 29.2708 31.125 29.4375 30.9375C29.6042 30.7708 29.7188 30.625 29.7812 30.5C29.8438 30.3958 29.8958 30.2188 29.9375 29.9688C29.9792 29.7396 30 29.5729 30 29.4688C29.9792 29.2396 29.8646 29 29.6562 28.75C29.4479 28.5208 29.2188 28.3958 28.9688 28.375C28.6979 28.3542 28.4688 28.4271 28.2812 28.5938C28.0938 28.7812 27.9167 28.9479 27.75 29.0938C27.7083 29.1354 27.6354 29.1979 27.5312 29.2812C27.4271 29.3854 27.3125 29.4792 27.1875 29.5625C27.0625 29.6667 26.9479 29.7604 26.8438 29.8438C26.7396 29.9271 26.6562 29.9688 26.5938 29.9688C26.3854 30.0104 26.2188 29.9375 26.0938 29.75C25.9896 29.5833 25.9792 29.3438 26.0625 29.0312C26.1042 28.8854 26.1979 28.7188 26.3438 28.5312C26.4896 28.3646 26.6042 28.2083 26.6875 28.0625C26.7917 27.8542 26.875 27.6667 26.9375 27.5C27 27.3542 27.1042 27.2083 27.25 27.0625C27.4792 26.8125 27.7708 26.6146 28.125 26.4688C28.5 26.3229 28.875 26.2292 29.25 26.1875C29.6458 26.1458 30.0208 26.1771 30.375 26.2812C30.7292 26.3854 31.0208 26.5625 31.25 26.8125C31.3125 26.875 31.3646 26.9792 31.4062 27.125C31.4688 27.2708 31.5208 27.4062 31.5625 27.5312C31.6875 27.7812 31.8229 28.0312 31.9688 28.2812C32.1354 28.5312 32.2396 28.7812 32.2812 29.0312C32.3021 29.1354 32.3021 29.2708 32.2812 29.4375C32.2812 29.625 32.2917 29.8021 32.3125 29.9688C32.3333 30.5312 32.2604 30.9583 32.0938 31.25C31.9479 31.5625 31.7292 31.9271 31.4375 32.3438C31.2917 32.5521 31.1354 32.7708 30.9688 33C30.8229 33.2292 30.6771 33.3958 30.5312 33.5C30.4271 33.5833 30.3021 33.6354 30.1562 33.6562C30.0104 33.6771 29.8854 33.7188 29.7812 33.7812C29.6562 33.8646 29.5417 33.9688 29.4375 34.0938C29.3542 34.2188 29.2604 34.3229 29.1562 34.4062C28.9271 34.5521 28.6042 34.6771 28.1875 34.7812C27.7917 34.8854 27.4479 34.9583 27.1562 35C26.5521 35.0833 25.9375 35.1042 25.3125 35.0625C24.7083 35.0417 24.2083 34.9375 23.8125 34.75C23.6042 34.6458 23.4271 34.5208 23.2812 34.375C23.1354 34.2292 22.9479 34.1354 22.7188 34.0938C22.4271 34.0521 22.1771 34.0417 21.9688 34.0625C21.7604 34.0833 21.5625 34.0521 21.375 33.9688C20.9583 33.7812 20.625 33.5312 20.375 33.2188C20.125 32.9062 19.8542 32.5729 19.5625 32.2188C19.5208 32.1562 19.5208 32.0833 19.5625 32C19.6042 31.9375 19.6562 31.8854 19.7188 31.8438C19.5729 31.6562 19.3958 31.5208 19.1875 31.4375C19 31.3542 18.8333 31.2292 18.6875 31.0625C18.4167 30.8125 18.2396 30.5 18.1562 30.125C18.0729 29.75 18.0104 29.3438 17.9688 28.9062C17.6979 28.7812 17.4375 28.6979 17.1875 28.6562C17 28.5104 16.8542 28.3333 16.75 28.125C16.6667 27.9375 16.5729 27.75 16.4688 27.5625C16.3646 27.3958 16.25 27.2292 16.125 27.0625C16 26.8958 15.8958 26.7083 15.8125 26.5C15.75 26.3125 15.6979 26.1042 15.6562 25.875C15.6146 25.6458 15.5625 25.4062 15.5 25.1562C15.375 24.6562 15.2708 24.125 15.1875 23.5625C15.125 22.9792 15.0521 22.4062 14.9688 21.8438C14.9271 21.5729 14.8958 21.3125 14.875 21.0625C14.875 20.7917 14.875 20.5417 14.875 20.3125C14.9167 19.7917 14.9792 19.2708 15.0625 18.75C15.1458 18.2083 15.1354 17.6875 15.0312 17.1875C15.0104 17.0833 14.9688 16.9583 14.9062 16.8125C14.8438 16.6667 14.7708 16.5208 14.6875 16.375C14.6042 16.2292 14.5104 16.1042 14.4062 16C14.3229 15.875 14.2396 15.8021 14.1562 15.7812C13.9062 15.6979 13.6146 15.7083 13.2812 15.8125C12.9688 15.8958 12.6979 15.9896 12.4688 16.0938C12.3229 16.1354 12.1042 16.2188 11.8125 16.3438C11.5417 16.4688 11.3646 16.5833 11.2812 16.6875C11.1771 16.8333 11.125 17 11.125 17.1875C11.1458 17.375 11.1146 17.5729 11.0312 17.7812C10.9896 17.9271 10.9167 18.0521 10.8125 18.1562C10.7083 18.2604 10.6354 18.3646 10.5938 18.4688C10.5521 18.5729 10.5417 18.6771 10.5625 18.7812C10.6042 18.8854 10.6146 18.9896 10.5938 19.0938C10.5938 19.2188 10.5625 19.3542 10.5 19.5C10.4583 19.625 10.4167 19.7708 10.375 19.9375C10.3125 20.2292 10.2708 20.5417 10.25 20.875C10.2292 21.1875 10.1979 21.4896 10.1562 21.7812C10.0938 22.1146 10.0208 22.4375 9.9375 22.75C9.875 23.0625 9.86458 23.3958 9.90625 23.75C9.94792 24 10.0417 24.2812 10.1875 24.5938C10.3542 24.9062 10.4167 25.125 10.375 25.25C10.2917 25.5 10.0521 25.6458 9.65625 25.6875C9.26042 25.7083 8.88542 25.7083 8.53125 25.6875C8.15625 25.6458 7.77083 25.6042 7.375 25.5625C7 25.5208 6.64583 25.5104 6.3125 25.5312C5.8125 25.5521 5.3125 25.6354 4.8125 25.7812C4.3125 25.9062 3.82292 26.0208 3.34375 26.125C2.88542 26.2292 2.40625 26.3438 1.90625 26.4688C1.40625 26.6146 0.927083 26.5938 0.46875 26.4062C0.427083 26.2188 0.447917 26.0208 0.53125 25.8125C0.614583 25.6042 0.791667 25.5208 1.0625 25.5625C1.3125 25.3333 1.55208 25.1146 1.78125 24.9062C2.01042 24.6771 2.22917 24.4271 2.4375 24.1562C2.52083 23.8229 2.67708 23.5 2.90625 23.1875C3.11458 22.875 3.28125 22.5312 3.40625 22.1562C3.46875 21.9688 3.5 21.7812 3.5 21.5938C3.52083 21.3854 3.58333 21.1979 3.6875 21.0312C3.77083 20.8854 3.89583 20.7812 4.0625 20.7188C4.22917 20.6562 4.35417 20.5625 4.4375 20.4375C4.45833 20.2083 4.40625 20.0625 4.28125 20C4.17708 19.9167 4.125 19.8021 4.125 19.6562C4.10417 19.5521 4.14583 19.3646 4.25 19.0938C4.35417 18.8229 4.44792 18.5417 4.53125 18.25C4.67708 17.7083 4.80208 17.2083 4.90625 16.75C5.01042 16.2917 5.10417 15.7917 5.1875 15.25C5.20833 15.1042 5.20833 14.9479 5.1875 14.7812C5.1875 14.6146 5.20833 14.4792 5.25 14.375C5.3125 14.1667 5.4375 13.9688 5.625 13.7812C5.8125 13.5938 5.9375 13.3854 6 13.1562C6.04167 12.9896 6.04167 12.8125 6 12.625C5.95833 12.4375 5.95833 12.25 6 12.0625C6.04167 11.8958 6.09375 11.7604 6.15625 11.6562C6.23958 11.5521 6.32292 11.4271 6.40625 11.2812C6.67708 10.4896 6.91667 9.64583 7.125 8.75C7.35417 7.83333 7.35417 6.97917 7.125 6.1875C7.02083 5.75 6.88542 5.33333 6.71875 4.9375C6.57292 4.54167 6.36458 4.27083 6.09375 4.125C5.92708 4.04167 5.73958 4 5.53125 4C5.34375 4 5.25 3.90625 5.25 3.71875C5.25 3.57292 5.34375 3.45833 5.53125 3.375C5.71875 3.29167 5.9375 3.22917 6.1875 3.1875C6.45833 3.125 6.71875 3.08333 6.96875 3.0625C7.23958 3.04167 7.44792 3.03125 7.59375 3.03125C7.88542 3.01042 8.19792 3.08333 8.53125 3.25C8.88542 3.41667 9.21875 3.5 9.53125 3.5C9.82292 3.5 10.125 3.51042 10.4375 3.53125C10.75 3.53125 11.0521 3.54167 11.3438 3.5625C11.6771 3.58333 11.9896 3.57292 12.2812 3.53125C12.5938 3.48958 12.9167 3.46875 13.25 3.46875C13.7917 3.44792 14.3229 3.38542 14.8438 3.28125C15.3854 3.15625 15.8958 3.14583 16.375 3.25C16.5417 3.39583 16.5833 3.55208 16.5 3.71875C16.4375 3.86458 16.3229 4.02083 16.1562 4.1875C15.9896 4.35417 15.8125 4.52083 15.625 4.6875C15.4375 4.85417 15.3021 5.02083 15.2188 5.1875C15.1354 5.47917 15.0521 5.77083 14.9688 6.0625C14.8854 6.33333 14.7604 6.59375 14.5938 6.84375C14.5521 6.90625 14.4792 6.95833 14.375 7C14.2917 7.04167 14.2188 7.10417 14.1562 7.1875C13.8646 7.625 13.6146 8.10417 13.4062 8.625C13.1979 9.14583 12.9583 9.6875 12.6875 10.25C12.6042 10.3125 12.5104 10.4271 12.4062 10.5938C12.3021 10.7604 12.2083 10.8958 12.125 11C12.1875 11.125 12.1979 11.2708 12.1562 11.4375C12.1354 11.6042 12.1042 11.7708 12.0625 11.9375C12.0208 12.1042 11.9896 12.2604 11.9688 12.4062C11.9479 12.5521 11.9688 12.6667 12.0312 12.75C12.0729 12.8125 12.1979 12.875 12.4062 12.9375C12.6146 12.9792 12.8021 12.9792 12.9688 12.9375C13.2812 12.8542 13.5625 12.6979 13.8125 12.4688C14.0625 12.2188 14.3125 11.9792 14.5625 11.75C14.8125 11.5417 15.0729 11.3646 15.3438 11.2188C15.6354 11.0729 15.9271 10.9375 16.2188 10.8125C16.5312 10.6667 16.8438 10.5208 17.1562 10.375C17.4688 10.2083 17.7812 10.0104 18.0938 9.78125C18.5729 9.42708 19.0104 9.0625 19.4062 8.6875C19.8021 8.29167 20.2292 7.90625 20.6875 7.53125C20.9167 7.36458 21.1146 7.20833 21.2812 7.0625C21.4479 6.91667 21.6458 6.80208 21.875 6.71875C22.0208 6.67708 22.1667 6.67708 22.3125 6.71875C22.4583 6.73958 22.5833 6.72917 22.6875 6.6875C22.8542 6.60417 23 6.44792 23.125 6.21875C23.25 5.98958 23.4062 5.80208 23.5938 5.65625C23.6979 5.57292 23.7917 5.52083 23.875 5.5C23.9792 5.45833 24.0938 5.38542 24.2188 5.28125C24.3854 5.17708 24.5417 5.0625 24.6875 4.9375C24.8542 4.8125 25.0417 4.6875 25.25 4.5625C25.4167 4.45833 25.5938 4.35417 25.7812 4.25C25.9688 4.14583 26.1458 4.02083 26.3125 3.875C26.6667 3.625 27.0208 3.36458 27.375 3.09375C27.7292 2.82292 28.0521 2.59375 28.3438 2.40625C28.4479 2.34375 28.5417 2.30208 28.625 2.28125C28.7292 2.26042 28.8229 2.22917 28.9062 2.1875C29.1146 2.08333 29.3021 1.94792 29.4688 1.78125C29.6562 1.61458 29.8438 1.44792 30.0312 1.28125C30.2188 1.11458 30.4167 0.96875 30.625 0.84375C30.8333 0.697917 31.0625 0.614583 31.3125 0.59375C31.5417 0.572917 31.7188 0.604167 31.8438 0.6875C31.9896 0.770833 32.1458 0.822917 32.3125 0.84375C32.6042 1.21875 32.6562 1.80208 32.4688 2.59375C32.4271 2.76042 32.3958 2.9375 32.375 3.125C32.3542 3.29167 32.3229 3.42708 32.2812 3.53125C32.2188 3.67708 32.1042 3.85417 31.9375 4.0625C31.7917 4.27083 31.6042 4.4375 31.375 4.5625C31.2083 4.66667 31.0104 4.78125 30.7812 4.90625C30.5729 5.03125 30.3854 5.11458 30.2188 5.15625C30.0938 5.19792 29.9792 5.20833 29.875 5.1875C29.7917 5.14583 29.6979 5.13542 29.5938 5.15625C29.3438 5.23958 29.1458 5.39583 29 5.625C28.875 5.83333 28.7708 6.04167 28.6875 6.25C28.3333 6.54167 27.9583 6.78125 27.5625 6.96875C27.1667 7.13542 26.7812 7.33333 26.4062 7.5625C25.9896 7.79167 25.5833 8 25.1875 8.1875C24.7917 8.375 24.3958 8.57292 24 8.78125C23.5 9.03125 23.0312 9.35417 22.5938 9.75C22.1562 10.1458 21.6979 10.5 21.2188 10.8125C20.7188 11.1042 20.2292 11.4271 19.75 11.7812C19.2917 12.1146 18.875 12.4792 18.5 12.875C18.375 12.9167 18.1771 13 17.9062 13.125C17.6354 13.25 17.4792 13.3958 17.4375 13.5625C17.4167 13.6458 17.4375 13.7396 17.5 13.8438C17.5833 13.9479 17.6771 14.0625 17.7812 14.1875C17.8854 14.2917 17.9792 14.3854 18.0625 14.4688C18.1667 14.5312 18.2292 14.5729 18.25 14.5938C18.3542 14.6771 18.4479 14.7396 18.5312 14.7812C18.6354 14.8021 18.7292 14.8438 18.8125 14.9062C19.0625 15.1146 19.2812 15.3438 19.4688 15.5938C19.6771 15.8229 19.8333 16.0833 19.9375 16.375C20.0417 16.6458 20.1354 16.9583 20.2188 17.3125C20.3229 17.6667 20.4271 18.0208 20.5312 18.375C20.6562 18.7917 20.7812 19.1875 20.9062 19.5625C21.0521 19.9375 21.1667 20.375 21.25 20.875C21.3542 21.5833 21.4375 22.3021 21.5 23.0312C21.5625 23.7604 21.6979 24.4479 21.9062 25.0938C21.9479 25.1979 21.9688 25.3125 21.9688 25.4375C21.9896 25.5417 22.0208 25.6458 22.0625 25.75C22.1042 25.8542 22.1458 25.9479 22.1875 26.0312C22.2292 26.1354 22.2604 26.2396 22.2812 26.3438C22.3021 26.4896 22.2917 26.6458 22.25 26.8125C22.2292 27 22.2396 27.1458 22.2812 27.25C22.3229 27.3542 22.4062 27.5208 22.5312 27.75C22.6771 27.9792 22.7917 28.1458 22.875 28.25C22.9792 28.4167 23.0938 28.5833 23.2188 28.75C23.3646 28.9375 23.5 29.125 23.625 29.3125C23.7708 29.5 23.8958 29.6875 24 29.875C24.125 30.0625 24.25 30.2292 24.375 30.375C24.625 30.6667 24.9271 30.9167 25.2812 31.125C25.6354 31.3333 25.9375 31.5417 26.1875 31.75ZM35.9963 26.448C34.4176 26.448 33.0203 26.1173 31.8043 25.456C30.6096 24.7733 29.671 23.824 28.9883 22.608C28.327 21.3707 27.9963 19.92 27.9963 18.256V17.872C27.9963 16.208 28.327 14.768 28.9883 13.552C29.6496 12.3147 30.5776 11.3653 31.7723 10.704C32.967 10.0213 34.3536 9.68 35.9323 9.68C37.4896 9.68 38.8443 10.032 39.9963 10.736C41.1483 11.4187 42.0443 12.3787 42.6843 13.616C43.3243 14.832 43.6443 16.2507 43.6443 17.872V19.248H32.0923C32.135 20.336 32.5403 21.2213 33.3083 21.904C34.0763 22.5867 35.015 22.928 36.1243 22.928C37.255 22.928 38.087 22.6827 38.6203 22.192C39.1536 21.7013 39.559 21.1573 39.8363 20.56L43.1323 22.288C42.8336 22.8427 42.3963 23.4507 41.8203 24.112C41.2656 24.752 40.519 25.3067 39.5803 25.776C38.6416 26.224 37.447 26.448 35.9963 26.448ZM32.1243 16.24H39.5483C39.463 15.3227 39.0896 14.5867 38.4283 14.032C37.7883 13.4773 36.9456 13.2 35.9003 13.2C34.8123 13.2 33.9483 13.4773 33.3083 14.032C32.6683 14.5867 32.2736 15.3227 32.1243 16.24ZM46.7886 26V3.6H50.8206V26H46.7886ZM58.1722 26L53.1162 10.128H57.4042L61.0842 23.056H61.6602L65.3402 10.128H69.6282L64.5722 26H58.1722ZM71.931 26V10.128H75.963V26H71.931ZM73.947 8.272C73.2216 8.272 72.603 8.03733 72.091 7.568C71.6003 7.09867 71.355 6.48 71.355 5.712C71.355 4.944 71.6003 4.32533 72.091 3.856C72.603 3.38667 73.2216 3.152 73.947 3.152C74.6936 3.152 75.3123 3.38667 75.803 3.856C76.2936 4.32533 76.539 4.944 76.539 5.712C76.539 6.48 76.2936 7.09867 75.803 7.568C75.3123 8.03733 74.6936 8.272 73.947 8.272ZM79.9865 26V10.128H83.9545V12.208H84.5305C84.7865 11.6533 85.2665 11.1307 85.9705 10.64C86.6745 10.128 87.7412 9.872 89.1705 9.872C90.4079 9.872 91.4852 10.16 92.4025 10.736C93.3412 11.2907 94.0665 12.0693 94.5785 13.072C95.0905 14.0533 95.3465 15.2053 95.3465 16.528V26H91.3145V16.848C91.3145 15.6533 91.0159 14.7573 90.4185 14.16C89.8425 13.5627 89.0105 13.264 87.9225 13.264C86.6852 13.264 85.7252 13.68 85.0425 14.512C84.3599 15.3227 84.0185 16.464 84.0185 17.936V26H79.9865Z" fill="white"/>
<path d="M143.233 2.46875C143.378 2.71875 143.451 2.95833 143.451 3.1875C142.972 3.3125 142.545 3.45833 142.17 3.625C141.816 3.77083 141.493 3.94792 141.201 4.15625C140.91 4.34375 140.639 4.58333 140.389 4.875C140.16 5.14583 139.931 5.46875 139.701 5.84375C139.576 6.03125 139.431 6.17708 139.264 6.28125C139.118 6.38542 138.993 6.54167 138.889 6.75C138.743 7.02083 138.628 7.32292 138.545 7.65625C138.462 7.96875 138.378 8.29167 138.295 8.625C138.253 8.72917 138.212 8.84375 138.17 8.96875C138.128 9.07292 138.087 9.17708 138.045 9.28125C138.003 9.51042 137.993 9.72917 138.014 9.9375C138.035 10.1458 138.003 10.3542 137.92 10.5625C137.858 10.7292 137.774 10.8646 137.67 10.9688C137.566 11.0729 137.483 11.1875 137.42 11.3125C137.253 11.6042 137.139 11.9271 137.076 12.2812C137.035 12.6354 136.993 13.0104 136.951 13.4062C136.931 13.5312 136.889 13.6458 136.826 13.75C136.785 13.8542 136.743 13.9688 136.701 14.0938C136.66 14.2604 136.628 14.4271 136.608 14.5938C136.587 14.7396 136.556 14.8958 136.514 15.0625C136.368 15.4792 136.212 15.9062 136.045 16.3438C135.899 16.7604 135.795 17.1771 135.733 17.5938C135.691 17.8229 135.67 18.0521 135.67 18.2812C135.691 18.4896 135.681 18.7083 135.639 18.9375C135.535 19.5417 135.389 20.125 135.201 20.6875C135.014 21.2292 134.837 21.7604 134.67 22.2812C134.566 22.6562 134.483 23.0104 134.42 23.3438C134.378 23.6562 134.295 23.9896 134.17 24.3438C134.087 24.5312 134.024 24.7083 133.983 24.875C133.941 25.0208 133.858 25.1667 133.733 25.3125C133.608 25.4583 133.431 25.5729 133.201 25.6562C132.972 25.7396 132.733 25.8125 132.483 25.875C132.233 25.9375 131.983 25.9896 131.733 26.0312C131.503 26.0938 131.295 26.1562 131.108 26.2188C130.92 26.3021 130.764 26.4167 130.639 26.5625C130.514 26.7292 130.378 26.875 130.233 27C130.087 27.1458 129.92 27.2396 129.733 27.2812C129.566 27.3438 129.337 27.3125 129.045 27.1875C129.024 26.9375 129.014 26.6562 129.014 26.3438C129.035 26.0312 129.066 25.75 129.108 25.5C129.17 25.1458 129.274 24.8333 129.42 24.5625C129.587 24.2917 129.743 24 129.889 23.6875C130.118 23.1458 130.264 22.625 130.326 22.125C130.389 21.625 130.524 21.1042 130.733 20.5625C130.92 20.4375 131.045 20.3021 131.108 20.1562C131.17 20.0104 131.201 19.8542 131.201 19.6875C131.222 19.5 131.222 19.3021 131.201 19.0938C131.181 18.8854 131.191 18.6562 131.233 18.4062C131.253 18.1562 131.316 17.9062 131.42 17.6562C131.524 17.4062 131.597 17.1458 131.639 16.875C131.681 16.6458 131.701 16.4688 131.701 16.3438C131.722 16.1979 131.733 16.0729 131.733 15.9688C131.753 15.8646 131.774 15.7604 131.795 15.6562C131.837 15.5312 131.889 15.375 131.951 15.1875C132.035 15 132.128 14.8125 132.233 14.625C132.337 14.4375 132.431 14.2396 132.514 14.0312C132.681 13.4896 132.806 12.9167 132.889 12.3125C132.972 11.7083 133.056 11.1146 133.139 10.5312C133.181 10.1771 133.243 9.78125 133.326 9.34375C133.431 8.90625 133.462 8.51042 133.42 8.15625C133.337 8.15625 133.181 8.28125 132.951 8.53125C132.743 8.78125 132.483 9.11458 132.17 9.53125C131.878 9.92708 131.545 10.3854 131.17 10.9062C130.816 11.4062 130.462 11.9271 130.108 12.4688C129.774 12.9896 129.451 13.4896 129.139 13.9688C128.847 14.4271 128.608 14.8229 128.42 15.1562C128.108 15.3438 127.868 15.5625 127.701 15.8125C127.556 16.0417 127.431 16.2917 127.326 16.5625C127.222 16.8333 127.118 17.125 127.014 17.4375C126.91 17.7292 126.753 18.0312 126.545 18.3438C126.378 18.9896 126.097 19.625 125.701 20.25C125.306 20.875 124.983 21.4896 124.733 22.0938C124.67 22.2604 124.608 22.4167 124.545 22.5625C124.503 22.6875 124.431 22.8333 124.326 23C124.16 23.4167 123.962 23.8229 123.733 24.2188C123.524 24.5938 123.306 24.9896 123.076 25.4062C122.826 25.8229 122.545 26.2083 122.233 26.5625C122.108 26.7292 122.003 26.9479 121.92 27.2188C121.858 27.4896 121.753 27.6458 121.608 27.6875C121.42 27.7292 121.222 27.6979 121.014 27.5938C120.806 27.5104 120.608 27.4479 120.42 27.4062C120.045 26.8646 119.826 26.3229 119.764 25.7812C119.764 25.6354 119.785 25.5 119.826 25.375C119.868 25.2292 119.878 25.0938 119.858 24.9688C119.837 24.7396 119.743 24.4896 119.576 24.2188C119.41 23.9271 119.306 23.6354 119.264 23.3438C119.181 22.9896 119.181 22.6562 119.264 22.3438C119.347 22.0104 119.347 21.7083 119.264 21.4375C119.222 21.3125 119.139 21.2083 119.014 21.125C118.91 21.0208 118.837 20.9167 118.795 20.8125C118.753 20.6667 118.733 20.5 118.733 20.3125C118.753 20.125 118.753 19.9375 118.733 19.75C118.67 19.3958 118.566 19 118.42 18.5625C118.295 18.125 118.181 17.6875 118.076 17.25C117.972 16.9375 117.826 16.5729 117.639 16.1562C117.472 15.7396 117.368 15.3438 117.326 14.9688C117.306 14.7604 117.285 14.5729 117.264 14.4062C117.264 14.2188 117.253 14.0417 117.233 13.875C117.191 13.5 117.097 13.0938 116.951 12.6562C116.806 12.2188 116.649 11.7812 116.483 11.3438C116.337 10.9062 116.201 10.4688 116.076 10.0312C115.972 9.59375 115.92 9.16667 115.92 8.75C115.816 8.79167 115.722 8.88542 115.639 9.03125C115.556 9.17708 115.472 9.35417 115.389 9.5625C115.306 9.77083 115.233 9.97917 115.17 10.1875C115.108 10.3958 115.056 10.5625 115.014 10.6875C114.951 10.7917 114.868 10.9062 114.764 11.0312C114.66 11.1562 114.597 11.3021 114.576 11.4688C114.556 11.5521 114.566 11.6458 114.608 11.75C114.67 11.8542 114.701 11.9688 114.701 12.0938C114.722 12.4271 114.66 12.7812 114.514 13.1562C114.368 13.5104 114.243 13.8646 114.139 14.2188C114.035 14.6354 113.951 15.0729 113.889 15.5312C113.826 15.9688 113.701 16.4271 113.514 16.9062C113.347 17.3646 113.212 17.8333 113.108 18.3125C113.024 18.7708 112.931 19.1875 112.826 19.5625C112.785 19.8333 112.764 20.1042 112.764 20.375C112.764 20.6458 112.722 20.8646 112.639 21.0312C112.535 21.2396 112.358 21.4062 112.108 21.5312C111.878 21.6562 111.733 21.8333 111.67 22.0625C111.649 22.5 111.556 23 111.389 23.5625C111.222 24.125 111.076 24.6458 110.951 25.125C110.91 25.3125 110.878 25.5104 110.858 25.7188C110.837 25.9062 110.795 26.0729 110.733 26.2188C110.691 26.3854 110.608 26.5208 110.483 26.625C110.378 26.75 110.212 26.8229 109.983 26.8438C109.587 26.8854 109.191 26.7917 108.795 26.5625C108.42 26.3333 108.191 26.0938 108.108 25.8438C108.066 25.6771 108.066 25.5104 108.108 25.3438C108.149 25.1562 108.17 24.9792 108.17 24.8125C107.899 24.9792 107.691 25.0625 107.545 25.0625C107.42 25.0625 107.306 25.0208 107.201 24.9375C107.097 24.8333 106.983 24.7083 106.858 24.5625C106.733 24.3958 106.566 24.2396 106.358 24.0938C106.149 23.9271 105.993 23.8333 105.889 23.8125C105.785 23.7708 105.712 23.6042 105.67 23.3125C105.628 23 105.649 22.6979 105.733 22.4062C105.816 22.1146 105.92 21.875 106.045 21.6875C106.108 21.5625 106.191 21.4583 106.295 21.375C106.399 21.2708 106.483 21.1667 106.545 21.0625C106.628 20.8958 106.628 20.6667 106.545 20.375C106.483 20.0625 106.503 19.7917 106.608 19.5625C106.753 19.25 106.91 18.9583 107.076 18.6875C107.243 18.3958 107.337 18.0417 107.358 17.625C107.378 17.4583 107.368 17.2812 107.326 17.0938C107.285 16.9062 107.285 16.7292 107.326 16.5625C107.347 16.3958 107.378 16.2292 107.42 16.0625C107.483 15.875 107.545 15.6667 107.608 15.4375C107.67 15.125 107.785 14.7917 107.951 14.4375C108.118 14.0833 108.253 13.6979 108.358 13.2812C108.441 13.1146 108.514 12.9479 108.576 12.7812C108.639 12.5938 108.701 12.4167 108.764 12.25C108.889 11.8958 108.972 11.5521 109.014 11.2188C109.076 10.8646 109.16 10.5208 109.264 10.1875C109.306 10.0625 109.368 9.95833 109.451 9.875C109.556 9.77083 109.628 9.66667 109.67 9.5625C109.837 9.20833 109.92 8.84375 109.92 8.46875C109.92 8.07292 109.962 7.66667 110.045 7.25C110.108 6.85417 110.181 6.5 110.264 6.1875C110.368 5.85417 110.451 5.55208 110.514 5.28125C110.576 4.98958 110.587 4.71875 110.545 4.46875C110.524 4.21875 110.42 3.95833 110.233 3.6875C110.128 3.54167 110.014 3.4375 109.889 3.375C109.785 3.3125 109.722 3.22917 109.701 3.125C109.701 2.875 109.795 2.73958 109.983 2.71875C110.191 2.67708 110.42 2.6875 110.67 2.75C110.92 2.8125 111.16 2.89583 111.389 3C111.639 3.08333 111.795 3.13542 111.858 3.15625C111.962 3.17708 112.087 3.17708 112.233 3.15625C112.378 3.13542 112.535 3.14583 112.701 3.1875C112.889 3.20833 113.076 3.23958 113.264 3.28125C113.451 3.32292 113.618 3.35417 113.764 3.375C114.097 3.375 114.337 3.375 114.483 3.375C114.628 3.35417 114.858 3.33333 115.17 3.3125C115.462 3.29167 115.816 3.29167 116.233 3.3125C116.67 3.33333 117.045 3.32292 117.358 3.28125C117.628 3.26042 117.962 3.21875 118.358 3.15625C118.774 3.09375 119.17 3.04167 119.545 3C119.941 2.95833 120.285 2.95833 120.576 3C120.889 3.02083 121.066 3.125 121.108 3.3125C121.17 3.54167 121.108 3.75 120.92 3.9375C120.753 4.10417 120.649 4.28125 120.608 4.46875C120.566 4.96875 120.514 5.53125 120.451 6.15625C120.389 6.76042 120.389 7.27083 120.451 7.6875C120.493 7.91667 120.503 8.14583 120.483 8.375C120.462 8.58333 120.483 8.77083 120.545 8.9375C120.67 9.39583 120.764 9.83333 120.826 10.25C120.847 10.5 120.941 10.7396 121.108 10.9688C121.295 11.1771 121.378 11.3958 121.358 11.625C121.337 11.9167 121.389 12.2188 121.514 12.5312C121.66 12.8229 121.743 13.1354 121.764 13.4688C121.806 13.8021 121.826 14.1458 121.826 14.5C121.847 14.8542 121.962 15.1771 122.17 15.4688C122.378 15.3021 122.503 15.0938 122.545 14.8438C122.608 14.5938 122.691 14.3542 122.795 14.125C122.837 14.0208 122.899 13.9271 122.983 13.8438C123.087 13.7396 123.181 13.6354 123.264 13.5312C123.493 13.0521 123.774 12.5521 124.108 12.0312C124.462 11.4896 124.764 10.9479 125.014 10.4062C125.285 9.88542 125.545 9.36458 125.795 8.84375C126.045 8.30208 126.285 7.76042 126.514 7.21875C126.556 7.13542 126.628 7.04167 126.733 6.9375C126.858 6.83333 126.983 6.72917 127.108 6.625C127.233 6.52083 127.347 6.42708 127.451 6.34375C127.576 6.23958 127.67 6.13542 127.733 6.03125C128.045 5.44792 128.306 4.94792 128.514 4.53125C128.743 4.09375 128.91 3.55208 129.014 2.90625C129.389 2.88542 129.743 2.89583 130.076 2.9375C130.431 2.97917 130.816 3.03125 131.233 3.09375C131.399 3.13542 131.545 3.1875 131.67 3.25C131.816 3.3125 131.962 3.35417 132.108 3.375C132.399 3.41667 132.628 3.42708 132.795 3.40625C132.983 3.38542 133.139 3.36458 133.264 3.34375C133.41 3.30208 133.545 3.28125 133.67 3.28125C133.816 3.26042 134.014 3.29167 134.264 3.375C134.972 3.375 135.701 3.32292 136.451 3.21875C137.201 3.11458 137.951 3.01042 138.701 2.90625C139.472 2.78125 140.233 2.67708 140.983 2.59375C141.753 2.51042 142.503 2.46875 143.233 2.46875ZM147.295 26.256C146.058 26.256 144.97 25.9787 144.031 25.424C143.114 24.848 142.399 24.0587 141.887 23.056C141.375 22.0533 141.119 20.9013 141.119 19.6V10.128H145.151V19.28C145.151 20.4747 145.439 21.3707 146.015 21.968C146.612 22.5653 147.455 22.864 148.543 22.864C149.78 22.864 150.74 22.4587 151.423 21.648C152.106 20.816 152.447 19.664 152.447 18.192V10.128H156.479V26H152.511V23.92H151.935C151.679 24.4533 151.199 24.976 150.495 25.488C149.791 26 148.724 26.256 147.295 26.256ZM166.601 26C165.556 26 164.703 25.68 164.041 25.04C163.401 24.3787 163.081 23.504 163.081 22.416V13.456H159.113V10.128H163.081V5.2H167.113V10.128H171.465V13.456H167.113V21.712C167.113 22.352 167.412 22.672 168.009 22.672H171.081V26H166.601ZM180.719 26.256C179.481 26.256 178.393 25.9787 177.455 25.424C176.537 24.848 175.823 24.0587 175.311 23.056C174.799 22.0533 174.543 20.9013 174.543 19.6V10.128H178.575V19.28C178.575 20.4747 178.863 21.3707 179.439 21.968C180.036 22.5653 180.879 22.864 181.967 22.864C183.204 22.864 184.164 22.4587 184.847 21.648C185.529 20.816 185.871 19.664 185.871 18.192V10.128H189.903V26H185.935V23.92H185.359C185.103 24.4533 184.623 24.976 183.919 25.488C183.215 26 182.148 26.256 180.719 26.256ZM193.177 18.128V17.616C193.177 15.952 193.508 14.5333 194.169 13.36C194.83 12.1653 195.705 11.2587 196.793 10.64C197.902 10 199.108 9.68 200.409 9.68C201.86 9.68 202.958 9.936 203.705 10.448C204.452 10.96 204.996 11.4933 205.337 12.048H205.913V10.128H209.881V28.816C209.881 29.904 209.561 30.768 208.921 31.408C208.281 32.0693 207.428 32.4 206.361 32.4H195.737V28.88H204.953C205.55 28.88 205.849 28.56 205.849 27.92V23.792H205.273C205.06 24.1333 204.761 24.4853 204.377 24.848C203.993 25.1893 203.481 25.4773 202.841 25.712C202.201 25.9467 201.39 26.064 200.409 26.064C199.108 26.064 197.902 25.7547 196.793 25.136C195.705 24.496 194.83 23.5893 194.169 22.416C193.508 21.2213 193.177 19.792 193.177 18.128ZM201.561 22.544C202.798 22.544 203.833 22.1493 204.665 21.36C205.497 20.5707 205.913 19.4613 205.913 18.032V17.712C205.913 16.2613 205.497 15.152 204.665 14.384C203.854 13.5947 202.82 13.2 201.561 13.2C200.324 13.2 199.289 13.5947 198.457 14.384C197.625 15.152 197.209 16.2613 197.209 17.712V18.032C197.209 19.4613 197.625 20.5707 198.457 21.36C199.289 22.1493 200.324 22.544 201.561 22.544ZM213.907 26V10.128H217.939V26H213.907ZM215.923 8.272C215.197 8.272 214.579 8.03733 214.067 7.568C213.576 7.09867 213.331 6.48 213.331 5.712C213.331 4.944 213.576 4.32533 214.067 3.856C214.579 3.38667 215.197 3.152 215.923 3.152C216.669 3.152 217.288 3.38667 217.779 3.856C218.269 4.32533 218.515 4.944 218.515 5.712C218.515 6.48 218.269 7.09867 217.779 7.568C217.288 8.03733 216.669 8.272 215.923 8.272Z" fill="#4EE1A0"/>
</svg>
